<?xml version="1.0" encoding="utf-8"?>
<!-- Generator: Adobe Illustrator 20.0.0, SVG Export Plug-In . SVG Version: 6.00 Build 0)  -->
<!DOCTYPE svg PUBLIC "-//W3C//DTD SVG 1.1//EN" "http://www.w3.org/Graphics/SVG/1.1/DTD/svg11.dtd">
<svg version="1.1" id="Layer_1" xmlns="http://www.w3.org/2000/svg" xmlns:xlink="http://www.w3.org/1999/xlink" x="0px" y="0px"
	 viewBox="0 0 286.1 44.7" style="enable-background:new 0 0 286.1 44.7;" xml:space="preserve">
<style type="text/css">
	.st0{fill:#FFFFFF;}
</style>
<g>
	<path class="st0" d="M35.5,11.6c-2-2.2-4.1-3.7-6.3-4.8c-2.2-1-4.7-1.5-7.4-1.5c-2.2,0-4.3,0.4-6.4,1.3c-2.1,0.9-3.9,2.1-5.4,3.7
		c-1.6,1.6-2.8,3.5-3.6,5.5c-0.8,2-1.2,4.3-1.2,6.7c0,1.9,0.2,3.7,0.7,5.3C6.3,29.5,7,31,8,32.3c1.7,2.4,3.7,4.2,6.1,5.5
		c2.4,1.3,5,1.9,7.9,1.9c2.6,0,5.1-0.5,7.4-1.6c2.3-1.1,4.3-2.7,6.2-4.9v6.5c-2.1,1.5-4.3,2.6-6.6,3.4c-2.4,0.8-4.8,1.1-7.3,1.1
		c-2.2,0-4.3-0.3-6.4-1c-2.1-0.7-4-1.6-5.8-2.8c-3-2.1-5.3-4.7-6.9-7.7C0.8,29.6,0,26.2,0,22.6c0-3.2,0.5-6.1,1.6-8.7
		c1.1-2.6,2.7-5,4.9-7.1c2.1-2,4.5-3.6,7-4.6c2.6-1,5.4-1.5,8.4-1.5c2.4,0,4.7,0.4,7,1.1c2.2,0.7,4.5,1.9,6.7,3.4V11.6z"/>
	<path class="st0" d="M57.1,0l18.9,43.1h-5.4l-5.4-12.7H49l-5.4,12.7h-5.4L57.1,0z M57.1,10.9l-6.6,15.3h13.2L57.1,10.9z"/>
	<path class="st0" d="M95.3,20.1c2.7,1.2,4.7,2.7,6.1,4.6s2.1,4.2,2.1,6.8c0,3.8-1.2,6.9-3.6,9.2c-2.4,2.3-5.6,3.5-9.6,3.5
		c-3.3,0-6-0.8-8.2-2.5c-2.2-1.7-3.7-4-4.5-7.1l4.5-2.2c0.6,2.5,1.6,4.4,3,5.7c1.4,1.3,3.1,1.9,5.2,1.9c2.5,0,4.5-0.7,6-2.1
		c1.5-1.4,2.3-3.3,2.3-5.6c0-1.9-0.5-3.5-1.6-4.8c-1.1-1.4-2.7-2.5-4.8-3.5l-5-2.2c-2.8-1.2-4.8-2.6-6.2-4.4c-1.3-1.8-2-4-2-6.5
		c0-2.9,1.1-5.4,3.3-7.3c2.2-1.9,5-2.9,8.4-2.9c2.5,0,4.6,0.5,6.5,1.6c1.8,1.1,3.2,2.6,4.3,4.7l-4.1,2.6c-0.9-1.6-2-2.8-3.1-3.6
		c-1.2-0.8-2.5-1.2-3.9-1.2c-1.9,0-3.4,0.6-4.5,1.7c-1.2,1.1-1.8,2.6-1.8,4.3c0,1.5,0.5,2.7,1.4,3.8c0.9,1.1,2.3,2,4.2,2.9
		L95.3,20.1z"/>
	<path class="st0" d="M117.3,43.1V6.3h-11.7V1.6h28.4v4.7h-11.7v36.8H117.3z"/>
	<path class="st0" d="M148.3,0l18.9,43.1h-5.4l-5.4-12.7h-16.2l-5.4,12.7h-5.4L148.3,0z M148.3,10.9l-6.6,15.3h13.2L148.3,10.9z"/>
	<path class="st0" d="M171.5,43.1V1.6h8c5.9,0,10,0.3,12.4,0.9c2.4,0.6,4.5,1.6,6.3,3c2.4,1.8,4.2,4.2,5.4,7
		c1.2,2.9,1.8,6.1,1.8,9.9c0,3.7-0.6,7-1.8,9.8c-1.2,2.8-3,5.2-5.4,7c-1.8,1.4-3.9,2.4-6.2,3c-2.3,0.6-5.9,0.9-10.8,0.9h-1.8H171.5z
		 M176.4,38.5h3.1c5.1,0,8.6-0.2,10.6-0.7c2-0.4,3.6-1.2,4.9-2.3c1.7-1.4,3-3.2,3.9-5.5c0.9-2.2,1.3-4.8,1.3-7.7
		c0-2.9-0.4-5.5-1.3-7.7c-0.9-2.2-2.2-4-3.9-5.5c-1.3-1.1-3-1.9-5-2.3c-2-0.5-5.5-0.7-10.5-0.7h-3.1V38.5z"/>
	<path class="st0" d="M213.6,43.1V1.6h4.9v41.5H213.6z"/>
	<path class="st0" d="M240.4,44.7L222.8,1.6h5.4l12.2,31.7l12.1-31.7h5.3L240.4,44.7z"/>
	<path class="st0" d="M267.3,0l18.9,43.1h-5.4l-5.4-12.7h-16.2l-5.4,12.7h-5.4L267.3,0z M267.3,10.9l-6.6,15.3h13.2L267.3,10.9z"/>
</g>
</svg>
