<?xml version="1.0" encoding="utf-8"?>
<!-- Generator: Adobe Illustrator 16.0.0, SVG Export Plug-In . SVG Version: 6.00 Build 0)  -->
<!DOCTYPE svg PUBLIC "-//W3C//DTD SVG 1.1//EN" "http://www.w3.org/Graphics/SVG/1.1/DTD/svg11.dtd">
<svg version="1.1" id="Layer_1" xmlns="http://www.w3.org/2000/svg" xmlns:xlink="http://www.w3.org/1999/xlink" x="0px" y="0px"
	 width="87.064px" height="20.039px" viewBox="0 0 87.064 20.039" enable-background="new 0 0 87.064 20.039" xml:space="preserve">
<path fill="#00A1B0" d="M17.107,2.931C13.201-0.975,6.846-0.977,2.938,2.926c0,0.001-0.001,0.001-0.002,0.002l0,0
	C2.935,2.929,2.934,2.93,2.933,2.931L2.804,3.06v0.003C0.994,4.94,0,7.401,0,10.016c0,2.677,1.043,5.194,2.937,7.087
	s4.41,2.937,7.088,2.937l0,0c2.676,0,5.188-1.041,7.082-2.933c0.001,0,0.002,0,0.002,0s0,0,0-0.002c0.001,0,0.002,0,0.002-0.002
	C21.015,13.195,21.014,6.838,17.107,2.931 M16.484,3.553c3.563,3.565,3.564,9.366,0.002,12.93
	c-3.004,3.002-7.892,3.002-10.896-0.002c-0.628-0.629-1.134-1.347-1.507-2.125c-0.006-0.013-0.014-0.023-0.019-0.037
	c-0.037-0.074-0.069-0.151-0.104-0.229c-0.019-0.043-0.037-0.085-0.056-0.128c-0.021-0.051-0.039-0.104-0.062-0.153
	c-0.022-0.07-0.051-0.14-0.074-0.209c-0.012-0.029-0.021-0.062-0.03-0.093c-0.029-0.09-0.062-0.18-0.088-0.271
	c-0.004-0.017-0.008-0.029-0.012-0.043c-0.03-0.106-0.061-0.215-0.087-0.321c-0.001-0.003-0.002-0.007-0.002-0.011
	C3.056,10.82,3.403,8.617,4.591,6.806c0.005-0.005,0.007-0.01,0.011-0.015c0.06-0.089,0.12-0.177,0.185-0.264
	C4.799,6.508,4.81,6.489,4.825,6.47c0.055-0.074,0.111-0.146,0.17-0.22c0.023-0.029,0.046-0.059,0.068-0.088
	C5.121,6.096,5.18,6.03,5.236,5.965C5.264,5.933,5.291,5.899,5.32,5.868c0.086-0.096,0.177-0.189,0.269-0.281
	c0.057-0.056,0.111-0.11,0.17-0.162C5.76,5.423,5.761,5.421,5.762,5.42c0.05-0.044,0.1-0.087,0.149-0.129
	c0.012-0.01,0.021-0.02,0.032-0.029C5.988,5.227,6.032,5.193,6.076,5.16c0.021-0.015,0.041-0.032,0.062-0.047
	c0.035-0.027,0.071-0.052,0.108-0.077c0.029-0.021,0.061-0.042,0.09-0.063c0.027-0.018,0.059-0.036,0.086-0.054
	c0.04-0.026,0.08-0.051,0.12-0.075c0.021-0.012,0.041-0.023,0.062-0.035C6.653,4.78,6.705,4.752,6.754,4.725
	c0.013-0.006,0.022-0.012,0.035-0.018C6.85,4.676,6.908,4.646,6.97,4.618c0.004-0.002,0.009-0.004,0.014-0.006
	c0.281-0.129,0.573-0.23,0.87-0.303c0.008-0.002,0.019-0.003,0.024-0.006C7.944,4.287,8.01,4.273,8.076,4.26
	c0.027-0.006,0.058-0.01,0.087-0.015c0.046-0.008,0.091-0.016,0.136-0.023c0.071-0.01,0.144-0.019,0.215-0.026
	c0.004,0,0.008-0.001,0.012-0.002c0.158-0.015,0.316-0.023,0.479-0.023c1.29,0,2.503,0.502,3.416,1.415
	c0.641,0.64,1.062,1.417,1.269,2.238c-0.179-0.295-0.394-0.574-0.646-0.828c-0.808-0.807-1.88-1.251-3.021-1.251
	C8.88,5.745,7.806,6.189,7,6.996c-2.228,2.227-2.228,5.85,0,8.078c1.078,1.078,2.514,1.672,4.038,1.672
	c1.525,0,2.96-0.594,4.038-1.672c0.104-0.105,0.207-0.213,0.305-0.321c3.043-3.364,2.942-8.581-0.302-11.825
	c-0.564-0.565-1.19-1.033-1.855-1.407c-0.033-0.019-0.068-0.038-0.103-0.057c-0.065-0.036-0.135-0.072-0.201-0.106
	c-0.017-0.008-0.03-0.017-0.047-0.025C14.193,1.764,15.436,2.504,16.484,3.553 M7.623,7.616L7.623,7.616
	c0.642-0.639,1.492-0.991,2.396-0.991c0.905,0,1.759,0.353,2.399,0.994c1.322,1.323,1.322,3.477,0,4.799
	c-0.642,0.639-1.492,0.991-2.396,0.991c-0.905,0-1.759-0.354-2.398-0.994C6.301,11.092,6.301,8.939,7.623,7.616 M0.88,10.016
	c0-2.437,0.946-4.729,2.667-6.454l0.009-0.008C3.627,3.48,3.702,3.411,3.777,3.342c0.021-0.018,0.037-0.037,0.058-0.055
	C3.896,3.231,3.96,3.178,4.023,3.124c0.035-0.03,0.069-0.061,0.104-0.091C4.178,2.992,4.23,2.954,4.28,2.914
	c0.053-0.041,0.104-0.082,0.156-0.121c0.037-0.026,0.073-0.05,0.109-0.076c0.07-0.049,0.141-0.1,0.212-0.147
	c0.021-0.013,0.04-0.025,0.062-0.038C4.91,2.474,4.999,2.417,5.09,2.363C5.092,2.36,5.094,2.359,5.098,2.357
	c1.31-0.771,2.798-1.121,4.271-1.052h0.008C9.481,1.31,9.586,1.318,9.69,1.328C9.71,1.33,9.729,1.331,9.749,1.332
	c0.112,0.011,0.228,0.024,0.34,0.041c0.01,0.001,0.019,0.002,0.027,0.003c0.116,0.017,0.233,0.037,0.351,0.059
	c0.006,0.001,0.011,0.001,0.016,0.002c0.114,0.022,0.229,0.047,0.343,0.075c0.008,0.002,0.015,0.003,0.021,0.005
	c0.104,0.026,0.208,0.054,0.311,0.084c0.019,0.005,0.036,0.01,0.055,0.015c0.088,0.026,0.177,0.055,0.265,0.085
	c0.032,0.011,0.065,0.021,0.101,0.033c0.065,0.024,0.135,0.05,0.2,0.076c0.054,0.021,0.106,0.04,0.159,0.062
	c0.043,0.018,0.084,0.036,0.126,0.055c0.078,0.033,0.154,0.066,0.23,0.102c0.014,0.006,0.023,0.013,0.038,0.019
	c0.777,0.373,1.496,0.878,2.124,1.506c2.91,2.911,3.001,7.59,0.272,10.611c-0.087,0.097-0.178,0.19-0.271,0.284
	c-0.912,0.912-2.125,1.415-3.416,1.415c-1.29,0-2.503-0.503-3.415-1.415c-0.643-0.641-1.062-1.418-1.27-2.239
	c0.178,0.296,0.393,0.574,0.646,0.828c0.808,0.808,1.88,1.252,3.021,1.252c1.141,0,2.211-0.442,3.019-1.249
	c0.001,0,0.002-0.001,0.002-0.001c0-0.001,0.001-0.001,0.002-0.002l0,0c0.001-0.001,0.002-0.003,0.004-0.004
	c0.015-0.015,0.027-0.028,0.041-0.042c0.021-0.021,0.041-0.045,0.062-0.066c0.041-0.044,0.082-0.087,0.121-0.132
	c0.021-0.022,0.039-0.045,0.06-0.067c0.045-0.053,0.09-0.104,0.133-0.156c0.013-0.018,0.022-0.031,0.036-0.049
	c0.048-0.062,0.096-0.123,0.141-0.186c0.006-0.008,0.012-0.016,0.019-0.023c1.588-2.229,1.385-5.353-0.613-7.351
	c-0.682-0.681-1.491-1.151-2.354-1.416c-0.01-0.003-0.021-0.007-0.028-0.009c-0.071-0.022-0.146-0.042-0.22-0.061
	c-0.018-0.004-0.033-0.01-0.052-0.014c-0.073-0.018-0.146-0.034-0.221-0.049c-0.019-0.003-0.033-0.007-0.051-0.011
	c-0.084-0.017-0.168-0.031-0.252-0.043c-0.01-0.004-0.016-0.005-0.022-0.005C9.475,3.298,9.096,3.279,8.719,3.298
	c-0.003,0-0.005,0-0.007,0C8.625,3.303,8.537,3.31,8.449,3.318C8.38,3.325,8.311,3.334,8.242,3.343
	c-0.02,0.003-0.04,0.005-0.06,0.007C7.538,3.442,6.922,3.642,6.353,3.941c-0.002,0-0.003,0.001-0.004,0.002
	C6.277,3.981,6.207,4.021,6.137,4.062C6.124,4.069,6.111,4.076,6.098,4.084C6.04,4.118,5.983,4.154,5.927,4.19
	C5.902,4.207,5.878,4.221,5.854,4.237c-0.045,0.03-0.088,0.061-0.131,0.092C5.688,4.354,5.651,4.377,5.617,4.402
	C5.586,4.426,5.555,4.451,5.523,4.476C5.479,4.51,5.434,4.544,5.391,4.58C5.37,4.596,5.352,4.613,5.332,4.63
	c-0.055,0.045-0.106,0.09-0.16,0.137c-0.006,0.007-0.014,0.013-0.02,0.02C5.09,4.843,5.029,4.901,4.969,4.96
	C4.865,5.064,4.764,5.17,4.666,5.278C4.639,5.31,4.611,5.343,4.584,5.375C4.517,5.451,4.448,5.528,4.383,5.608
	C4.361,5.636,4.34,5.665,4.316,5.693C4.248,5.778,4.182,5.864,4.117,5.952c-0.014,0.017-0.022,0.034-0.035,0.05
	C4.008,6.103,3.936,6.206,3.867,6.31c0,0,0,0.001-0.001,0.001C2.947,7.7,2.454,9.328,2.454,11.032c0,0.975,0.163,1.924,0.473,2.817
	c0.004,0.012,0.008,0.021,0.012,0.031c0.035,0.102,0.071,0.199,0.11,0.299c0.015,0.034,0.027,0.069,0.041,0.104
	c0.029,0.068,0.061,0.14,0.091,0.209c0.027,0.062,0.055,0.127,0.084,0.189c0.019,0.035,0.036,0.07,0.055,0.106
	c0.405,0.837,0.953,1.622,1.646,2.315c0.677,0.676,1.438,1.213,2.25,1.613c-1.363-0.438-2.613-1.197-3.656-2.24
	C1.831,14.755,0.88,12.458,0.88,10.016 M8.227,10.506c-0.271,0-0.488-0.219-0.488-0.489s0.22-0.489,0.488-0.489h1.307V8.223
	c0-0.271,0.22-0.489,0.488-0.489c0.27,0,0.487,0.219,0.487,0.489v1.305h1.308c0.271,0,0.488,0.219,0.488,0.489
	s-0.22,0.489-0.488,0.489H10.51v1.307c0,0.271-0.219,0.488-0.487,0.488c-0.27,0-0.488-0.219-0.488-0.488v-1.307H8.227 M26.72,9.874
	c0.188-0.108,0.357-0.264,0.506-0.464c0.202-0.291,0.307-0.623,0.307-0.986c0-0.618-0.2-1.115-0.595-1.479
	c-0.395-0.362-0.94-0.546-1.629-0.546h-2.873v7.13h2.992c0.653,0,1.188-0.186,1.593-0.547c0.403-0.362,0.607-0.877,0.607-1.526
	C27.629,10.723,27.324,10.19,26.72,9.874 M23.906,10.576h1.384c0.28,0,0.499,0.076,0.646,0.229c0.149,0.152,0.225,0.344,0.225,0.582
	c0,0.235-0.075,0.434-0.225,0.588c-0.146,0.154-0.365,0.231-0.646,0.231h-1.384V10.576z M25.839,9.034
	c-0.146,0.139-0.361,0.209-0.639,0.209h-1.295V7.722H25.2c0.275,0,0.49,0.07,0.639,0.208c0.146,0.138,0.222,0.324,0.222,0.552
	C26.06,8.711,25.985,8.897,25.839,9.034 M30.948,12.266c0.804,0,1.194-0.268,1.194-0.817c0-0.248-0.062-0.435-0.19-0.554
	c-0.131-0.121-0.335-0.201-0.605-0.238l-0.851-0.118c-1.267-0.174-1.908-0.852-1.908-2.014c0-0.65,0.229-1.182,0.68-1.582
	c0.447-0.398,1.061-0.6,1.818-0.6c0.957,0,1.732,0.28,2.308,0.833l0.035,0.035L32.49,8.137l-0.034-0.033
	c-0.325-0.312-0.799-0.47-1.408-0.47c-0.335,0-0.596,0.081-0.771,0.239c-0.179,0.159-0.266,0.356-0.266,0.601
	c0,0.192,0.065,0.348,0.206,0.478s0.347,0.216,0.609,0.254l0.83,0.119c0.605,0.087,1.066,0.273,1.368,0.556
	c0.371,0.351,0.56,0.864,0.56,1.527c0,0.678-0.254,1.218-0.754,1.604c-0.497,0.385-1.138,0.577-1.9,0.577
	c-1.108,0-1.984-0.315-2.604-0.942l-0.034-0.032l0.958-0.959l0.033,0.034C29.668,12.07,30.229,12.266,30.948,12.266 M37.546,6.399
	h-2.773v7.13h1.472v-2.647h1.304c0.715,0,1.302-0.224,1.743-0.667c0.416-0.416,0.626-0.946,0.626-1.575
	c0-0.629-0.21-1.16-0.626-1.575C38.846,6.623,38.26,6.399,37.546,6.399 M36.242,7.722h1.233c0.295,0,0.532,0.085,0.707,0.252
	c0.174,0.168,0.262,0.392,0.262,0.667c0,0.274-0.088,0.497-0.262,0.661C38.01,9.466,37.771,9.55,37.477,9.55h-1.233L36.242,7.722
	L36.242,7.722z M45.083,13.529l-1.787-3.164l-0.853,1.019v2.146h-1.471V6.4h1.471v2.973L44.85,6.4h1.797l-2.375,2.849l2.522,4.282
	L45.083,13.529L45.083,13.529z M53.022,13.529h-1.301l-2.712-4.2v4.2h-1.469v-7.13h1.299l0.017,0.022l2.694,4.167V6.399h1.472
	V13.529z M58.575,9.997c0.391,0.344,0.59,0.841,0.59,1.479c0,0.649-0.242,1.172-0.722,1.549c-0.476,0.373-1.098,0.562-1.856,0.562
	c-1.055,0-1.903-0.315-2.522-0.94l-0.034-0.037l0.779-0.771l0.035,0.034c0.436,0.438,1.028,0.658,1.764,0.658
	c0.447,0,0.797-0.094,1.041-0.272c0.242-0.18,0.36-0.427,0.36-0.756c0-0.301-0.088-0.534-0.26-0.694
	c-0.151-0.138-0.401-0.232-0.746-0.283l-0.83-0.118c-0.586-0.087-1.043-0.281-1.358-0.576c-0.351-0.331-0.526-0.794-0.526-1.378
	c0-0.631,0.217-1.146,0.647-1.533c0.428-0.385,1.019-0.58,1.75-0.58c0.892,0,1.637,0.274,2.215,0.813l0.037,0.034l-0.75,0.741
	l-0.035-0.033c-0.368-0.352-0.875-0.53-1.495-0.53c-0.39,0-0.693,0.099-0.91,0.293c-0.218,0.194-0.324,0.448-0.324,0.754
	c0,0.261,0.084,0.47,0.255,0.621c0.174,0.154,0.43,0.258,0.762,0.309l0.799,0.118C57.823,9.548,58.272,9.728,58.575,9.997
	 M61.803,13.529V7.455h-1.938V6.399h5.036v1.056h-1.937v6.074H61.803z M69.891,6.398h1.164v4.711c0,0.729-0.248,1.33-0.736,1.789
	c-0.487,0.457-1.106,0.688-1.84,0.688c-0.734,0-1.353-0.23-1.836-0.688c-0.485-0.459-0.731-1.062-0.731-1.789V6.398h1.164v4.663
	c0,0.451,0.129,0.813,0.383,1.076c0.252,0.262,0.597,0.396,1.021,0.396c0.424,0,0.771-0.135,1.024-0.396
	c0.257-0.263,0.388-0.625,0.388-1.076L69.891,6.398L69.891,6.398z M77.055,12.854c0.342-0.342,0.562-0.806,0.655-1.379
	c0.047-0.293,0.069-0.815,0.069-1.56c0-0.724-0.022-1.231-0.069-1.51c-0.094-0.542-0.313-0.989-0.655-1.331
	c-0.447-0.448-1.07-0.676-1.853-0.676h-2.519v7.129h2.519C75.985,13.529,76.608,13.302,77.055,12.854 M75.096,7.455
	c0.495,0,0.885,0.154,1.157,0.457c0.156,0.177,0.263,0.44,0.313,0.785c0.031,0.228,0.05,0.637,0.05,1.218
	c0,0.594-0.019,1.021-0.05,1.269c-0.053,0.377-0.157,0.656-0.313,0.832c-0.271,0.305-0.662,0.459-1.157,0.459H73.85v-5.02H75.096z
	 M80.428,13.529h-1.164V6.398h1.164V13.529z M86.379,12.823c0.32-0.321,0.524-0.722,0.604-1.19c0.054-0.285,0.08-0.847,0.08-1.669
	c0-0.821-0.026-1.383-0.08-1.667c-0.08-0.47-0.284-0.871-0.604-1.192c-0.508-0.508-1.146-0.765-1.894-0.765
	c-0.739,0-1.373,0.257-1.881,0.765c-0.321,0.321-0.528,0.722-0.614,1.191c-0.056,0.292-0.08,0.853-0.08,1.668
	c0,0.816,0.024,1.377,0.08,1.669c0.086,0.469,0.293,0.869,0.614,1.19c0.508,0.508,1.142,0.766,1.881,0.766
	C85.235,13.589,85.872,13.331,86.379,12.823 M85.87,11.105c-0.043,0.455-0.168,0.793-0.371,1.008
	c-0.261,0.277-0.601,0.42-1.013,0.42c-0.411,0-0.752-0.143-1.01-0.42c-0.203-0.215-0.328-0.553-0.373-1.01
	c-0.021-0.162-0.028-0.547-0.028-1.142c0-0.594,0.01-0.977,0.028-1.141c0.045-0.454,0.17-0.793,0.373-1.008
	c0.258-0.278,0.599-0.419,1.01-0.419c0.412,0,0.752,0.141,1.013,0.419c0.203,0.214,0.328,0.554,0.373,1.009
	c0.021,0.161,0.028,0.545,0.028,1.14C85.901,10.559,85.891,10.941,85.87,11.105"/>
</svg>
