<?xml version="1.0" encoding="utf-8"?>
<!-- Generator: Adobe Illustrator 20.0.0, SVG Export Plug-In . SVG Version: 6.00 Build 0)  -->
<!DOCTYPE svg PUBLIC "-//W3C//DTD SVG 1.1//EN" "http://www.w3.org/Graphics/SVG/1.1/DTD/svg11.dtd">
<svg version="1.1" id="Livello_1" xmlns="http://www.w3.org/2000/svg" xmlns:xlink="http://www.w3.org/1999/xlink" x="0px" y="0px"
	 viewBox="0 0 58 98.6" style="enable-background:new 0 0 58 98.6;" xml:space="preserve">
<style type="text/css">
	.st0{fill:#FFFFFF;}
</style>
<g>
	<path class="st0" d="M22.5,23.2c1,2.2,2,6.2,6.9,10.6c-4.9-4.9-4.7-11.6-4.7-11.6v-0.1c0,0,0,0,0-0.1l0,0c0-0.3-0.1-0.7-0.1-1l0,0
		c0,0,0,0,0-0.1l0,0c0-0.2-0.1-0.4-0.1-0.6l0,0v-0.1c-0.4-2.2-0.7-4.8-2-6.6c-2.2-3.3-6-5.3-9.9-6.4C11,6.9,9.4,6.7,7.8,6.7H7.7
		c-0.2-0.1-0.4,0-0.6,0.1L7,6.8l0,0C6.9,6.9,6.8,7.1,6.8,7.2c-0.1,0.4,0,0.7,0.3,0.9l0,0l0.2,0.1l0,0c0,0,0,0,0.1,0
		c0.2,0.1,0.5,0,0.7-0.1c1.9-0.2,3.8,0,5.7,0.5c3.3,0.9,6.1,2.9,8.1,5.7c0.2,0.2,0.3,0.5,0.5,0.7c-2-3-4.9-5.1-8.3-6.1
		c-0.9-0.2-1.8-0.4-2.7-0.5c-0.1,0-0.2-0.1-0.3-0.1c-0.4-0.1-0.8-0.1-1.2,0L9.5,8.5l0,0C9,8.7,8.6,9.2,8.5,9.7
		c-0.3,0.9,0.2,1.8,0.9,2.3c2.7-0.2,5.5,0.3,8.1,1.7c1.6,0.9,2.9,2,4,3.3c-0.9-1-2.1-1.9-3.3-2.6c-4.5-2.5-14.5-3.1-17.9,6.4
		c0,0.1,0,0.1-0.1,0.2S0,21.2,0,21.3c0,0.1,0,0.3,0,0.4l0,0l0,0c0.1,0.1,0.2,0.2,0.3,0.2s0.3,0,0.4-0.1l0,0l0,0
		c0.2,0,0.3-0.1,0.3-0.2s0-0.3-0.1-0.4C1,21,1,20.9,1.1,20.7c0.3-1,0.7-2,1.2-2.8l0,0c-0.5,1.9,0.6,3.9,2.4,4.4
		c1.3,0.4,2.8-0.1,3.7-1.1v0.1l0,0c0,0.1-0.1,0.2-0.1,0.4c-0.5,1.9-0.2,3.9,0.9,5.5l0,0c0,0.2,0.1,0.4,0.3,0.5l0,0l0,0l0,0
		c0.3,0.1,0.5-0.1,0.6-0.3v-0.1l0,0l0,0l0,0c0-0.2-0.1-0.4-0.3-0.4c-1-1.5-1.3-3.4-0.8-5.1c0.2-0.9,0.7-1.6,1.3-2.3
		c1.7-2.3,4.7-3.3,7.5-2.3c0,0,0.1,0,0.1,0.1C15,16,12,17.1,10.4,19.5c0.1,0.7,0.6,1.2,1.3,1.4c0.5,0.1,1,0.1,1.4-0.2l0,0l0.2-0.2
		c0.2-0.2,0.4-0.4,0.5-0.6C17.4,15.9,21.6,21,22.5,23.2z"/>
	<path class="st0" d="M6.1,48.2L6.1,48.2L6.1,48.2L6.1,48.2c-0.2,0.6,0,1.1,0.5,1.4c0.1,0,0.2,0.1,0.3,0.1l0,0l0,0l0,0
		c0.4,0,0.9-0.2,1-0.6c3.5-1.8,7.5-1.9,11.1-0.3c1.7,0.8,3.3,1.9,4.5,3.3c4.3,4.2,5.6,10.9,2.7,16.5c0,0.1-0.1,0.2-0.2,0.3
		c2.8-5.8,1.3-12.5-3.3-16.6c-1.4,0.1-2.7,0.9-3.3,2.3c-0.4,1-0.4,2.1,0,3.1l-0.1-0.1l0.3,0.5c0.3,0.5,0.7,0.9,1.2,1.2
		c2.1,2.6,2.6,6.1,1.3,9.1c-0.9,2.1-2.7,3.8-4.8,4.6c-1,0.3-2,0.5-2.7,0.6c-0.4,0-0.9,0-1.3,0.1l0,0c-0.1,0-0.1,0-0.2,0l0,0l0,0
		c-3.7,0.5-6.9,2.6-8.9,5.7c-0.1,0.1-0.1,0.2-0.2,0.3l0,0.1v0.1C4,80,3.9,80,3.9,80.1l0,0c-0.2,0.4-0.4,0.8-0.6,1.1
		C2,84.3,1.9,87.7,3,90.8C4.1,94,6.4,96.6,9.4,98c0.1,0.1,0.2,0.1,0.3,0.1h0.1h0.1H10l0,0c2.5,1,5.3-0.2,6.4-2.7
		c1-2.3,0.2-5-1.9-6.3c-0.2-0.1-0.3-0.2-0.5-0.3v0.1v-0.1l0,0h-0.1c-2.5-1.1-5.5,0-6.6,2.6c-0.4,1-0.5,2.1-0.3,3.1
		c-1.5-2.4-1.7-5.3-0.6-7.9c1.2-2.7,3.7-4.6,6.7-5h0.2h0.1h0.1c0.7,0,1.4,0.1,2.1,0l0,0c0.1,0,0.1,0,0.2,0l0,0c0.4,0,0.9,0,1.4,0
		l0,0h0.2c4.8-0.2,9.5-1.5,13.7-3.8c7.7-3.6,13.8-9.9,17.2-17.7c1.4-3.1,2.3-6.4,2.7-9.8c0-0.1,0.1-0.1,0.1-0.2
		c0.2-0.4,0.2-0.9,0-1.3L51,48.4v0.1c-0.2-0.3-0.4-0.5-0.7-0.6c-0.7-0.3-1.5-0.1-2,0.5v-0.1l-0.2,0.3l0,0c0,0,0,0.1-0.1,0.1
		c-0.2,0.5-0.2,1,0,1.4c-0.1,4.1-1,8.2-2.7,12c-3,6.7-7.9,12.1-14.4,15.5c-0.6,0.3-1.1,0.5-1.7,0.7C36,75,41.4,69.5,44.5,62.4
		c0.8-1.8,1.4-3.6,1.8-5.5c0.1-0.2,0.2-0.4,0.3-0.6c0.4-0.8,0.4-1.7,0.3-2.6l-0.1-0.5v0.1c-0.4-1.1-1.2-2.1-2.3-2.6
		c-1.8-0.8-3.9-0.2-5.1,1.4c-0.3,5.8-2.2,11.6-6,16.6c-2.3,3.1-5,5.5-8.1,7.5c2.4-1.7,4.6-3.8,6.5-6.3c6.6-8.8,10.8-29.8-8.5-39.8
		C23.2,30,23,30,22.9,29.9c-0.1-0.2-0.3-0.4-0.5-0.5c-0.3-0.1-0.6-0.1-0.8,0l0,0l0,0c-0.3,0.1-0.5,0.3-0.6,0.6
		c-0.1,0.3-0.1,0.6,0,0.9l0,0l0,0c0.1,0.2,0.3,0.4,0.5,0.5c0.3,0.1,0.6,0.1,0.9,0c0.4,0.1,0.7,0.3,1,0.4c2,0.9,3.9,2,5.7,3.4l0,0
		c-3.8-1.7-8.3,0.1-10,3.9c-1.2,2.7-0.7,5.9,1.3,8.1l-0.1-0.1l0.1,0.1c-0.3-0.1-0.5-0.3-0.8-0.4c-3.8-1.7-8.2-1.5-11.9,0.4
		C6.7,47.5,6.3,47.7,6.1,48.2z M20.1,39.7c1.7-3.2,5.6-4.5,8.9-2.8c3.2,1.7,4.5,5.6,2.8,8.9c-1.7,3.2-5.6,4.5-8.9,2.8
		C19.7,46.9,18.4,42.9,20.1,39.7z"/>
	<ellipse transform="matrix(0.4601 -0.8879 0.8879 0.4601 -23.9029 46.0796)" class="st0" cx="25.9" cy="42.7" rx="5.2" ry="5.2"/>
	<g>
		<path class="st0" d="M26.4,23.3c0.4,3.3,1.6,6.6,3.4,9.4l0.1,0.1l0,0c0.2,0.3,0.3,0.5,0.5,0.8l0,0c0,0,0,0.1,0.1,0.1l0,0
			c0.3,0.4,0.6,0.8,0.9,1.2V35c0,0,0,0,0.1,0.1l0.1,0.1c0,0,7,7.2,6.6,17.6c0.9-9.9-3.8-15.3-5-18.7s0-13.3,8.1-12.6
			c0.4,0.2,0.7,0.2,1.1,0.2h0.4h-0.1c0.7-0.1,1.4-0.6,1.8-1.2c0.5-0.9,0.5-2-0.1-2.8c-4.2-1-8.7,0.9-10.9,4.8c0-0.1,0.1-0.1,0.1-0.2
			c2.1-3.9,6.4-5.9,10.6-5.1c1.3,0.1,2.6,0.6,3.7,1.3c2.3,1.4,3.9,3.8,4.3,6.5c-0.2,0.3-0.1,0.6,0.1,0.8l0,0l0,0
			c0.1,0.1,0.1,0.1,0.1,0.1c0.3,0.2,0.8,0.1,1-0.2l0,0l0,0l0,0c0.2-0.3,0.1-0.6-0.1-0.9c-0.4-2.9-2.1-5.5-4.6-7
			c-0.2-0.1-0.3-0.2-0.5-0.3h0.1h-0.1c2,0.2,4.1-0.8,5.1-2.5c1.5-2.5,0.7-5.8-1.8-7.3l0,0c1.5,0.4,2.9,1.1,4.2,1.9
			c0.2,0.1,0.4,0.3,0.6,0.4c0,0.2,0.2,0.4,0.4,0.5c0.1,0.1,0.3,0.1,0.5,0.1l0,0l0,0c0.2,0,0.4-0.2,0.5-0.4C58,9.7,58,9.5,58,9.3l0,0
			l0,0c0-0.2-0.2-0.4-0.3-0.5c-0.2-0.1-0.3-0.1-0.5-0.1c-0.1-0.1-0.2-0.1-0.3-0.2c-13.5-7-23.9,3.9-26.2,11.2c-0.7,2.1-1,4.2-1,6.3
			c-0.1-2.5,0.2-5.1,1-7.7c1.4-4.2,3.9-7.6,7.1-10.1c0.4-1.3-0.1-2.7-1.3-3.5c-0.7-0.4-1.6-0.5-2.4-0.3l0,0l-0.4,0.2
			c-0.6,0.2-1,0.7-1.4,1.2c-0.1,0.1-0.1,0.3-0.2,0.4c-0.9,1-1.7,2.1-2.4,3.3c-2.8,4.6-3.8,9.9-3,15.2C26.6,24.3,26.5,23.8,26.4,23.3
			c-0.6-5,0.4-10,3.1-14.4C31,6.4,33,4.3,35.3,2.5c0.3-0.1,0.7-0.2,0.8-0.6V1.8l0.1-0.2l0,0c0.1-0.5-0.1-1-0.5-1.3
			C35.6,0.1,35.4,0,35.1,0l0,0l-0.3,0.1c-0.3,0.1-0.6,0.3-0.7,0.5c0,0,0,0.1-0.1,0.1c-1.8,1.6-3.3,3.5-4.5,5.5
			C26.5,11.4,25.3,17.4,26.4,23.3z M44.7,9.8c1.1-2.2,3.8-3.1,6.1-1.9C53,9,53.9,11.7,52.7,14c-1.1,2.2-3.8,3.1-6.1,1.9
			C44.4,14.7,43.5,12,44.7,9.8z"/>
	</g>
	<ellipse transform="matrix(0.46 -0.8879 0.8879 0.46 15.6614 49.6243)" class="st0" cx="48.6" cy="11.9" rx="3.6" ry="3.6"/>
</g>
</svg>
