<?xml version="1.0" encoding="utf-8"?>
<!-- Generator: Adobe Illustrator 20.0.0, SVG Export Plug-In . SVG Version: 6.00 Build 0)  -->
<!DOCTYPE svg PUBLIC "-//W3C//DTD SVG 1.1//EN" "http://www.w3.org/Graphics/SVG/1.1/DTD/svg11.dtd">
<svg version="1.1" id="Livello_1" xmlns="http://www.w3.org/2000/svg" xmlns:xlink="http://www.w3.org/1999/xlink" x="0px" y="0px"
	 viewBox="0 0 286.1 178.9" style="enable-background:new 0 0 286.1 178.9;" xml:space="preserve">
<style type="text/css">
	.st0{fill:#00A1AF;}
	.st1{fill:#FFD756;}
</style>
<g>
	<g>
		<path class="st0" d="M136.6,23.2c1,2.2,2,6.2,6.9,10.6c-4.9-4.9-4.7-11.6-4.7-11.6l0-0.1c0,0,0,0,0-0.1l0,0c0-0.3-0.1-0.7-0.1-1
			l0,0c0,0,0,0,0-0.1l0,0c0-0.2-0.1-0.4-0.1-0.6h0l0-0.1c-0.4-2.2-0.7-4.8-2-6.6c-2.2-3.3-6-5.3-9.9-6.4c-1.5-0.4-3.1-0.7-4.7-0.6
			c0,0-0.1,0-0.1,0c-0.2-0.1-0.4,0-0.6,0.1l-0.2,0.1l0,0c-0.1,0.1-0.2,0.2-0.2,0.4c-0.1,0.3,0.1,0.7,0.3,0.9l0,0l0.2,0.1l0,0
			c0,0,0,0,0.1,0c0.2,0.1,0.5,0,0.7-0.1c1.9-0.2,3.8,0,5.7,0.5c3.3,0.9,6.1,2.9,8.1,5.7c0.2,0.2,0.3,0.5,0.5,0.7
			c-2-3-4.9-5.1-8.3-6.1c-0.9-0.2-1.8-0.4-2.7-0.5c-0.1,0-0.2-0.1-0.3-0.1c-0.4-0.1-0.8-0.1-1.2,0l-0.2,0.1l0,0
			c-0.5,0.2-0.9,0.7-1,1.2c-0.3,0.9,0.2,1.8,0.9,2.3c2.7-0.2,5.5,0.3,8.1,1.7c1.6,0.9,2.9,2,4,3.3c-0.9-1-2.1-1.9-3.3-2.6
			c-4.5-2.5-14.5-3.1-17.9,6.4c0,0.1,0,0.1-0.1,0.2c-0.1,0.1-0.2,0.2-0.2,0.3c0,0.1,0,0.3,0,0.4v0l0,0c0.1,0.1,0.2,0.2,0.3,0.2
			c0.1,0,0.3,0,0.4-0.1l0,0l0,0c0.1-0.1,0.2-0.2,0.2-0.3c0-0.1,0-0.3-0.1-0.4c0-0.2,0.1-0.3,0.1-0.5c0.3-1,0.7-2,1.2-2.8
			c0,0,0,0,0,0c-0.5,1.9,0.6,3.9,2.4,4.4c1.3,0.4,2.8-0.1,3.7-1.1l0,0.1l0,0c0,0.1-0.1,0.2-0.1,0.4c-0.5,1.9-0.2,3.9,0.9,5.5l0,0
			c0,0.2,0.1,0.4,0.3,0.5c0,0,0,0,0,0l0,0l0,0c0.3,0.1,0.5-0.1,0.6-0.3c0,0,0-0.1,0-0.1l0,0l0,0h0c0-0.2-0.1-0.4-0.3-0.4
			c-1-1.5-1.3-3.4-0.8-5.1c0.2-0.9,0.7-1.6,1.3-2.3c1.7-2.3,4.7-3.3,7.5-2.3c0,0,0.1,0,0.1,0.1c-2.8-0.9-5.9,0.2-7.5,2.6
			c0.1,0.7,0.6,1.2,1.3,1.4c0.5,0.1,1,0.1,1.4-0.2l0,0l0.2-0.2c0.2-0.2,0.4-0.4,0.5-0.6C131.5,15.9,135.7,21,136.6,23.2z"/>
		<path class="st0" d="M120.2,48.2C120.2,48.2,120.2,48.2,120.2,48.2L120.2,48.2L120.2,48.2c-0.2,0.6,0,1.1,0.5,1.4
			c0.1,0,0.2,0.1,0.3,0.1l0,0l0,0l0,0c0.4,0,0.9-0.2,1-0.6c3.5-1.8,7.5-1.9,11.1-0.3c1.7,0.8,3.3,1.9,4.5,3.3
			c4.3,4.2,5.6,10.9,2.7,16.5c0,0.1-0.1,0.2-0.2,0.3c2.8-5.8,1.3-12.5-3.3-16.6c-1.4,0.1-2.7,0.9-3.3,2.3c-0.4,1-0.4,2.1,0,3.1
			l-0.1-0.1l0.3,0.5c0.3,0.5,0.7,0.9,1.2,1.2c2.1,2.6,2.6,6.1,1.3,9.1c-0.9,2.1-2.7,3.8-4.8,4.6c-1,0.3-2,0.5-2.7,0.6
			c-0.4,0-0.9,0-1.3,0.1l0,0c-0.1,0-0.1,0-0.2,0c0,0,0,0,0,0l0,0c-3.7,0.5-6.9,2.6-8.9,5.7c-0.1,0.1-0.1,0.2-0.2,0.3l-0.1,0.1
			l-0.1,0.1c0,0.1-0.1,0.1-0.1,0.2l0,0c-0.2,0.4-0.4,0.8-0.6,1.1c-1.3,3.1-1.4,6.5-0.3,9.6c1.2,3.1,3.5,5.7,6.5,7.1
			c0.1,0.1,0.2,0.1,0.3,0.1l0.1,0l0.1,0l0.1,0l0,0c2.5,1,5.3-0.2,6.4-2.7c1-2.3,0.2-5-1.9-6.3c-0.2-0.1-0.3-0.2-0.5-0.3l0,0.1l0-0.1
			l0,0c0,0-0.1,0-0.1,0c-2.5-1.1-5.5,0-6.6,2.6c-0.4,1-0.5,2.1-0.3,3.1c-1.5-2.4-1.7-5.3-0.6-7.9c1.2-2.7,3.7-4.6,6.7-5l0.2,0
			c0,0,0.1,0,0.1,0l0.1,0c0.7,0,1.4,0.1,2.1,0l0,0c0.1,0,0.1,0,0.2,0l0,0c0.4,0,0.9,0,1.4,0l0,0l0.2,0c4.8-0.2,9.5-1.5,13.7-3.8
			c7.7-3.6,13.8-9.9,17.2-17.7c1.4-3.1,2.3-6.4,2.7-9.8c0-0.1,0.1-0.1,0.1-0.2c0.2-0.4,0.2-0.9,0-1.3l-0.1-0.4l0,0.1
			c-0.2-0.3-0.4-0.5-0.7-0.6c-0.7-0.3-1.5-0.1-2,0.5l0-0.1l-0.2,0.3l0,0c0,0,0,0.1-0.1,0.1c-0.2,0.5-0.2,1,0,1.4
			c-0.1,4.1-1,8.2-2.7,12c-3,6.7-7.9,12.1-14.4,15.5c-0.6,0.3-1.1,0.5-1.7,0.7c6.8-3.3,12.2-8.8,15.3-15.9c0.8-1.8,1.4-3.6,1.8-5.5
			c0.1-0.2,0.2-0.4,0.3-0.6c0.4-0.8,0.4-1.7,0.3-2.6l-0.1-0.5l0,0.1c-0.4-1.1-1.2-2.1-2.3-2.6c-1.8-0.8-3.9-0.2-5.1,1.4
			c-0.3,5.8-2.2,11.6-6,16.6c-2.3,3.1-5,5.5-8.1,7.5c2.4-1.7,4.6-3.8,6.5-6.3c6.6-8.8,10.8-29.8-8.5-39.8c-0.1-0.1-0.3-0.1-0.4-0.2
			c-0.1-0.2-0.3-0.4-0.5-0.5c-0.3-0.1-0.6-0.1-0.8,0l0,0l0,0c-0.3,0.1-0.5,0.3-0.6,0.6c-0.1,0.3-0.1,0.6,0,0.9l0,0l0,0
			c0.1,0.2,0.3,0.4,0.5,0.5c0.3,0.1,0.6,0.1,0.9,0c0.4,0.1,0.7,0.3,1,0.4c2,0.9,3.9,2,5.7,3.4c0,0,0,0,0,0c-3.8-1.7-8.3,0.1-10,3.9
			c-1.2,2.7-0.7,5.9,1.3,8.1l-0.1-0.1l0.1,0.1c-0.3-0.1-0.5-0.3-0.8-0.4c-3.8-1.7-8.2-1.5-11.9,0.4
			C120.8,47.5,120.3,47.7,120.2,48.2z M134.2,39.7c1.7-3.2,5.6-4.5,8.9-2.8c3.2,1.7,4.5,5.6,2.8,8.9c-1.7,3.2-5.6,4.5-8.9,2.8
			C133.8,46.9,132.5,42.9,134.2,39.7z"/>
		<ellipse transform="matrix(0.4601 -0.8879 0.8879 0.4601 37.6506 147.4154)" class="st1" cx="140" cy="42.7" rx="5.2" ry="5.2"/>
		<g>
			<path class="st1" d="M140.4,23.3c0.4,3.3,1.6,6.6,3.4,9.4l0.1,0.1h0c0.2,0.3,0.3,0.5,0.5,0.8l0,0c0,0,0,0.1,0.1,0.1h0
				c0.3,0.4,0.6,0.8,0.9,1.2l0,0.1c0,0,0,0,0.1,0.1l0.1,0.1c0,0,7,7.2,6.6,17.6c0.9-9.9-3.8-15.3-5-18.7c-1.2-3.4,0-13.3,8.1-12.6
				c0.4,0.2,0.7,0.2,1.1,0.2l0.4,0l-0.1,0c0.7-0.1,1.4-0.6,1.8-1.2c0.5-0.9,0.5-2-0.1-2.8c-4.2-1-8.7,0.9-10.9,4.8
				c0-0.1,0.1-0.1,0.1-0.2c2.1-3.9,6.4-5.9,10.6-5.1c1.3,0.1,2.6,0.6,3.7,1.3c2.3,1.4,3.9,3.8,4.3,6.5c-0.2,0.3-0.1,0.6,0.1,0.8l0,0
				l0,0c0.1,0.1,0.1,0.1,0.1,0.1c0.3,0.2,0.8,0.1,1-0.2l0,0l0,0c0,0,0,0,0,0c0.2-0.3,0.1-0.6-0.1-0.9c-0.4-2.9-2.1-5.5-4.6-7
				c-0.2-0.1-0.3-0.2-0.5-0.3l0.1,0l-0.1,0c2,0.2,4.1-0.8,5.1-2.5c1.5-2.5,0.7-5.8-1.8-7.3c0,0,0,0,0,0c1.5,0.4,2.9,1.1,4.2,1.9
				c0.2,0.1,0.4,0.3,0.6,0.4c0,0.2,0.2,0.4,0.4,0.5c0.1,0.1,0.3,0.1,0.5,0.1h0l0,0c0.2,0,0.4-0.2,0.5-0.4c0.1-0.2,0.1-0.4,0.1-0.6
				l0,0h0c0-0.2-0.2-0.4-0.3-0.5c-0.2-0.1-0.3-0.1-0.5-0.1c-0.1-0.1-0.2-0.1-0.3-0.2c-13.5-7-23.9,3.9-26.2,11.2
				c-0.7,2.1-1,4.2-1,6.3c-0.1-2.5,0.2-5.1,1-7.7c1.4-4.2,3.9-7.6,7.1-10.1c0.4-1.3-0.1-2.7-1.3-3.5c-0.7-0.4-1.6-0.5-2.4-0.3l0,0
				l-0.4,0.2c-0.6,0.2-1,0.7-1.4,1.2c-0.1,0.1-0.1,0.3-0.2,0.4c-0.9,1-1.7,2.1-2.4,3.3c-2.8,4.6-3.8,9.9-3,15.2
				c-0.1-0.4-0.2-0.9-0.3-1.3c-0.6-5.1,0.4-10.1,3.1-14.5c1.5-2.5,3.5-4.6,5.8-6.4c0.3-0.1,0.7-0.2,0.8-0.6c0,0,0-0.1,0-0.1l0.1-0.2
				l0,0c0.1-0.5-0.1-1-0.5-1.3c-0.2-0.1-0.4-0.2-0.7-0.2l0,0L149,0.1c-0.3,0.1-0.6,0.3-0.7,0.5c0,0,0,0.1-0.1,0.1
				c-1.8,1.6-3.3,3.5-4.5,5.5C140.5,11.4,139.4,17.4,140.4,23.3z M158.7,9.8c1.1-2.2,3.8-3.1,6.1-1.9c2.2,1.1,3.1,3.8,1.9,6.1
				c-1.1,2.2-3.8,3.1-6.1,1.9C158.5,14.7,157.6,12,158.7,9.8z"/>
		</g>
		<ellipse transform="matrix(0.46 -0.8879 0.8879 0.46 77.3035 150.8999)" class="st0" cx="162.7" cy="11.9" rx="3.6" ry="3.6"/>
	</g>
	<g>
		<path class="st0" d="M35.5,122.8c-2-2.2-4.1-3.7-6.3-4.8c-2.2-1-4.7-1.5-7.4-1.5c-2.2,0-4.3,0.4-6.4,1.3c-2.1,0.9-3.9,2.1-5.4,3.7
			c-1.6,1.6-2.8,3.5-3.6,5.5c-0.8,2-1.2,4.3-1.2,6.7c0,1.9,0.2,3.7,0.7,5.3c0.5,1.6,1.2,3.1,2.1,4.5c1.7,2.4,3.7,4.2,6.1,5.5
			c2.4,1.3,5,1.9,7.9,1.9c2.6,0,5.1-0.5,7.4-1.6c2.3-1.1,4.3-2.7,6.2-4.9v6.5c-2.1,1.5-4.3,2.6-6.6,3.4c-2.4,0.8-4.8,1.1-7.3,1.1
			c-2.2,0-4.3-0.3-6.4-1c-2.1-0.7-4-1.6-5.8-2.8c-3-2.1-5.3-4.7-6.9-7.7c-1.6-3.1-2.4-6.4-2.4-10.1c0-3.2,0.5-6.1,1.6-8.7
			c1.1-2.6,2.7-5,4.9-7.1c2.1-2,4.5-3.6,7-4.6c2.6-1,5.4-1.5,8.4-1.5c2.4,0,4.7,0.4,7,1.1c2.2,0.7,4.5,1.9,6.7,3.4V122.8z"/>
		<path class="st0" d="M57.1,111.2l18.9,43.1h-5.4l-5.4-12.7H49l-5.4,12.7h-5.4L57.1,111.2z M57.1,122.1l-6.6,15.3h13.2L57.1,122.1z
			"/>
		<path class="st0" d="M95.3,131.3c2.7,1.2,4.7,2.7,6.1,4.6s2.1,4.2,2.1,6.8c0,3.8-1.2,6.9-3.6,9.2c-2.4,2.3-5.6,3.5-9.6,3.5
			c-3.3,0-6-0.8-8.2-2.5c-2.2-1.7-3.7-4-4.5-7.1l4.5-2.2c0.6,2.5,1.6,4.4,3,5.7c1.4,1.3,3.1,1.9,5.2,1.9c2.5,0,4.5-0.7,6-2.1
			c1.5-1.4,2.3-3.3,2.3-5.6c0-1.9-0.5-3.5-1.6-4.8c-1.1-1.4-2.7-2.5-4.8-3.5l-5-2.2c-2.8-1.2-4.8-2.6-6.2-4.4c-1.3-1.8-2-4-2-6.5
			c0-2.9,1.1-5.4,3.3-7.3c2.2-1.9,5-2.9,8.4-2.9c2.5,0,4.6,0.5,6.5,1.6c1.8,1.1,3.2,2.6,4.3,4.7l-4.1,2.6c-0.9-1.6-2-2.8-3.1-3.6
			c-1.2-0.8-2.5-1.2-3.9-1.2c-1.9,0-3.4,0.6-4.5,1.7c-1.2,1.1-1.8,2.6-1.8,4.3c0,1.5,0.5,2.7,1.4,3.8c0.9,1.1,2.3,2,4.2,2.9
			L95.3,131.3z"/>
		<path class="st0" d="M117.3,154.3v-36.8h-11.7v-4.7h28.4v4.7h-11.7v36.8H117.3z"/>
		<path class="st0" d="M148.3,111.2l18.9,43.1h-5.4l-5.4-12.7h-16.2l-5.4,12.7h-5.4L148.3,111.2z M148.3,122.1l-6.6,15.3h13.2
			L148.3,122.1z"/>
		<path class="st0" d="M171.5,154.3v-41.5h8c5.9,0,10,0.3,12.4,0.9c2.4,0.6,4.5,1.6,6.3,3c2.4,1.8,4.2,4.2,5.4,7
			c1.2,2.9,1.8,6.1,1.8,9.9c0,3.7-0.6,7-1.8,9.8c-1.2,2.8-3,5.2-5.4,7c-1.8,1.4-3.9,2.4-6.2,3c-2.3,0.6-5.9,0.9-10.8,0.9h-1.8H171.5
			z M176.4,149.7h3.1c5.1,0,8.6-0.2,10.6-0.7c2-0.4,3.6-1.2,4.9-2.3c1.7-1.4,3-3.2,3.9-5.5c0.9-2.2,1.3-4.8,1.3-7.7
			c0-2.9-0.4-5.5-1.3-7.7c-0.9-2.2-2.2-4-3.9-5.5c-1.3-1.1-3-1.9-5-2.3c-2-0.5-5.5-0.7-10.5-0.7h-3.1V149.7z"/>
		<path class="st0" d="M213.6,154.3v-41.5h4.9v41.5H213.6z"/>
		<path class="st0" d="M240.4,155.9l-17.5-43.1h5.4l12.2,31.7l12.1-31.7h5.3L240.4,155.9z"/>
		<path class="st0" d="M267.3,111.2l18.9,43.1h-5.4l-5.4-12.7h-16.2l-5.4,12.7h-5.4L267.3,111.2z M267.3,122.1l-6.6,15.3h13.2
			L267.3,122.1z"/>
	</g>
	<g>
		<path class="st0" d="M90,178.6v-7.9H91v7.9H90z"/>
		<path class="st0" d="M97.1,178.6v-7h-2.2v-0.9h5.4v0.9h-2.2v7H97.1z"/>
		<path class="st0" d="M105.9,170.4l3.6,8.2h-1l-1-2.4h-3.1l-1,2.4h-1L105.9,170.4z M105.9,172.5l-1.3,2.9h2.5L105.9,172.5z"/>
		<path class="st0" d="M113.1,178.6v-7.9h0.9v7h3v0.9H113.1z"/>
		<path class="st0" d="M121,178.6v-7.9h0.9v7.9H121z"/>
		<path class="st0" d="M129.2,170.4l3.6,8.2h-1l-1-2.4h-3.1l-1,2.4h-1L129.2,170.4z M129.2,172.5l-1.3,2.9h2.5L129.2,172.5z"/>
		<path class="st0" d="M136.4,178.6v-8.2l5.8,6.3v-6h0.9v8.2l-5.8-6.2v5.9H136.4z"/>
		<path class="st0" d="M153.9,178.6v-7.9h4.1v0.9h-3.2v2.3h3.2v0.9h-3.2v3.9H153.9z"/>
		<path class="st0" d="M170.4,174.7c0,0.6-0.1,1.1-0.3,1.6c-0.2,0.5-0.5,0.9-0.9,1.3c-0.4,0.4-0.9,0.7-1.4,0.9
			c-0.5,0.2-1.1,0.3-1.6,0.3c-0.6,0-1.1-0.1-1.6-0.3c-0.5-0.2-1-0.5-1.4-0.9c-0.4-0.4-0.7-0.8-0.9-1.3c-0.2-0.5-0.3-1-0.3-1.6
			c0-0.6,0.1-1.1,0.3-1.6c0.2-0.5,0.5-0.9,0.9-1.3c0.4-0.4,0.8-0.7,1.4-0.9c0.5-0.2,1.1-0.3,1.6-0.3c0.6,0,1.1,0.1,1.6,0.3
			c0.5,0.2,1,0.5,1.4,0.9c0.4,0.4,0.7,0.8,0.9,1.3C170.3,173.6,170.4,174.1,170.4,174.7z M166.2,177.9c0.4,0,0.8-0.1,1.2-0.2
			c0.4-0.2,0.7-0.4,1.1-0.7c0.3-0.3,0.5-0.7,0.7-1c0.2-0.4,0.2-0.8,0.2-1.2c0-0.4-0.1-0.9-0.2-1.3c-0.2-0.4-0.4-0.7-0.7-1.1
			c-0.3-0.3-0.7-0.5-1-0.7c-0.4-0.2-0.8-0.2-1.2-0.2c-0.4,0-0.9,0.1-1.2,0.2c-0.4,0.2-0.7,0.4-1,0.7c-0.3,0.3-0.5,0.7-0.7,1.1
			c-0.2,0.4-0.2,0.8-0.2,1.3c0,0.4,0.1,0.8,0.2,1.2c0.2,0.4,0.4,0.7,0.7,1.1c0.3,0.3,0.7,0.6,1.1,0.7
			C165.3,177.9,165.8,177.9,166.2,177.9z"/>
		<path class="st0" d="M182.8,174.7c0,0.6-0.1,1.1-0.3,1.6c-0.2,0.5-0.5,0.9-0.9,1.3c-0.4,0.4-0.9,0.7-1.4,0.9
			c-0.5,0.2-1.1,0.3-1.6,0.3c-0.6,0-1.1-0.1-1.6-0.3c-0.5-0.2-1-0.5-1.4-0.9c-0.4-0.4-0.7-0.8-0.9-1.3c-0.2-0.5-0.3-1-0.3-1.6
			c0-0.6,0.1-1.1,0.3-1.6c0.2-0.5,0.5-0.9,0.9-1.3c0.4-0.4,0.8-0.7,1.4-0.9c0.5-0.2,1.1-0.3,1.6-0.3c0.6,0,1.1,0.1,1.6,0.3
			c0.5,0.2,1,0.5,1.4,0.9c0.4,0.4,0.7,0.8,0.9,1.3C182.7,173.6,182.8,174.1,182.8,174.7z M178.6,177.9c0.4,0,0.8-0.1,1.2-0.2
			c0.4-0.2,0.7-0.4,1.1-0.7c0.3-0.3,0.5-0.7,0.7-1c0.2-0.4,0.2-0.8,0.2-1.2c0-0.4-0.1-0.9-0.2-1.3c-0.2-0.4-0.4-0.7-0.7-1.1
			c-0.3-0.3-0.7-0.5-1-0.7c-0.4-0.2-0.8-0.2-1.2-0.2c-0.4,0-0.9,0.1-1.2,0.2c-0.4,0.2-0.7,0.4-1,0.7c-0.3,0.3-0.5,0.7-0.7,1.1
			c-0.2,0.4-0.2,0.8-0.2,1.3c0,0.4,0.1,0.8,0.2,1.2c0.2,0.4,0.4,0.7,0.7,1.1c0.3,0.3,0.7,0.6,1.1,0.7
			C177.8,177.9,178.2,177.9,178.6,177.9z"/>
		<path class="st0" d="M187.2,178.6v-7.9h1.5c1.1,0,1.9,0.1,2.4,0.2c0.5,0.1,0.9,0.3,1.2,0.6c0.5,0.3,0.8,0.8,1,1.3
			c0.2,0.5,0.3,1.2,0.3,1.9c0,0.7-0.1,1.3-0.3,1.9c-0.2,0.5-0.6,1-1,1.3c-0.3,0.3-0.7,0.5-1.2,0.6c-0.4,0.1-1.1,0.2-2,0.2h-0.3
			H187.2z M188.2,177.7h0.6c1,0,1.6,0,2-0.1c0.4-0.1,0.7-0.2,0.9-0.4c0.3-0.3,0.6-0.6,0.7-1c0.2-0.4,0.3-0.9,0.3-1.5
			c0-0.6-0.1-1-0.2-1.5c-0.2-0.4-0.4-0.8-0.7-1c-0.2-0.2-0.6-0.4-0.9-0.4c-0.4-0.1-1-0.1-2-0.1h-0.6V177.7z"/>
	</g>
</g>
</svg>
